<svg width="96" height="96" viewBox="0 0 96 96" fill="none" xmlns="http://www.w3.org/2000/svg">
<path d="M18 39C18 35.6863 20.6863 33 24 33H84C87.3137 33 90 35.6863 90 39V69C90 72.3137 87.3137 75 84 75H24C20.6863 75 18 72.3137 18 69V39Z" fill="#021024" fill-opacity="0.1"/>
<path d="M18 37C18 34.7909 19.7909 33 22 33H82C84.2091 33 86 34.7909 86 37V67C86 69.2091 84.2091 71 82 71H22C19.7909 71 18 69.2091 18 67V37Z" fill="#78D3A9"/>
<path fill-rule="evenodd" clip-rule="evenodd" d="M22 31H82C85.3137 31 88 33.6863 88 37V67C88 70.3137 85.3137 73 82 73H22C18.6863 73 16 70.3137 16 67V37C16 33.6863 18.6863 31 22 31ZM22 33C19.7909 33 18 34.7909 18 37V67C18 69.2091 19.7909 71 22 71H82C84.2091 71 86 69.2091 86 67V37C86 34.7909 84.2091 33 82 33H22Z" fill="#2B6F95"/>
<path fill-rule="evenodd" clip-rule="evenodd" d="M18 37C18 34.7909 19.7909 33 22 33H44C44.5523 33 45 33.4477 45 34C45 34.5523 44.5523 35 44 35H22C20.8954 35 20 35.8954 20 37V48C20 48.5523 19.5523 49 19 49C18.4477 49 18 48.5523 18 48V37Z" fill="#9FFAD0"/>
<path d="M30 35H22C20.8954 35 20 35.8954 20 37V44.5404C20 45.809 21.1664 46.7509 22.3596 46.3202C26.0568 44.9855 30.8026 42.0479 31.8078 36.9884C32.023 35.905 31.1046 35 30 35Z" fill="#1BB093"/>
<path d="M74 69L82 69C83.1046 69 84 68.1046 84 67L84 59.4596C84 58.191 82.8336 57.2491 81.6404 57.6798C77.9432 59.0145 73.1974 61.9521 72.1922 67.0116C71.977 68.095 72.8954 69 74 69Z" fill="#1BB093"/>
<path d="M20 59L20 67C20 68.1046 20.8954 69 22 69L29.5404 69C30.809 69 31.7509 67.8336 31.3202 66.6403C29.9855 62.9432 27.0479 58.1974 21.9884 57.1922C20.905 56.977 20 57.8954 20 59Z" fill="#1BB093"/>
<path d="M84 45L84 37C84 35.8954 83.1046 35 82 35L74.4596 35C73.191 35 72.2491 36.1664 72.6798 37.3596C74.0145 41.0568 76.9521 45.8026 82.0116 46.8078C83.095 47.023 84 46.1046 84 45Z" fill="#1BB093"/>
<path d="M68 61C68 61.5523 67.5523 62 67 62C66.4477 62 66 61.5523 66 61C66 60.4477 66.4477 60 67 60C67.5523 60 68 60.4477 68 61Z" fill="#1BB093"/>
<path d="M72 60C72 60.5523 71.5523 61 71 61C70.4477 61 70 60.5523 70 60C70 59.4477 70.4477 59 71 59C71.5523 59 72 59.4477 72 60Z" fill="#1BB093"/>
<path d="M72 64C72 64.5523 71.5523 65 71 65C70.4477 65 70 64.5523 70 64C70 63.4477 70.4477 63 71 63C71.5523 63 72 63.4477 72 64Z" fill="#1BB093"/>
<path d="M67 65C67 65.5523 66.5523 66 66 66C65.4477 66 65 65.5523 65 65C65 64.4477 65.4477 64 66 64C66.5523 64 67 64.4477 67 65Z" fill="#1BB093"/>
<path d="M62 65C62 65.5523 61.5523 66 61 66C60.4477 66 60 65.5523 60 65C60 64.4477 60.4477 64 61 64C61.5523 64 62 64.4477 62 65Z" fill="#1BB093"/>
<path d="M57 68C57 68.5523 56.5523 69 56 69C55.4477 69 55 68.5523 55 68C55 67.4477 55.4477 67 56 67C56.5523 67 57 67.4477 57 68Z" fill="#1BB093"/>
<path d="M84 55C84 55.5523 83.5523 56 83 56C82.4477 56 82 55.5523 82 55C82 54.4477 82.4477 54 83 54C83.5523 54 84 54.4477 84 55Z" fill="#1BB093"/>
<path d="M75 56C75 56.5523 74.5523 57 74 57C73.4477 57 73 56.5523 73 56C73 55.4477 73.4477 55 74 55C74.5523 55 75 55.4477 75 56Z" fill="#1BB093"/>
<path d="M71 68C71 68.5523 70.5523 69 70 69C69.4477 69 69 68.5523 69 68C69 67.4477 69.4477 67 70 67C70.5523 67 71 67.4477 71 68Z" fill="#1BB093"/>
<path d="M65 68C65 68.5523 64.5523 69 64 69C63.4477 69 63 68.5523 63 68C63 67.4477 63.4477 67 64 67C64.5523 67 65 67.4477 65 68Z" fill="#1BB093"/>
<path d="M76 61C76 61.5523 75.5523 62 75 62C74.4477 62 74 61.5523 74 61C74 60.4477 74.4477 60 75 60C75.5523 60 76 60.4477 76 61Z" fill="#1BB093"/>
<path d="M80 63C80 63.5523 79.5523 64 79 64C78.4477 64 78 63.5523 78 63C78 62.4477 78.4477 62 79 62C79.5523 62 80 62.4477 80 63Z" fill="#1BB093"/>
<path d="M79 58C79 58.5523 78.5523 59 78 59C77.4477 59 77 58.5523 77 58C77 57.4477 77.4477 57 78 57C78.5523 57 79 57.4477 79 58Z" fill="#1BB093"/>
<path d="M75 66C75 66.5523 74.5523 67 74 67C73.4477 67 73 66.5523 73 66C73 65.4477 73.4477 65 74 65C74.5523 65 75 65.4477 75 66Z" fill="#1BB093"/>
<path d="M80 68C80 68.5523 79.5523 69 79 69C78.4477 69 78 68.5523 78 68C78 67.4477 78.4477 67 79 67C79.5523 67 80 67.4477 80 68Z" fill="#1BB093"/>
<path fill-rule="evenodd" clip-rule="evenodd" d="M67 52C67 60.2843 60.2843 67 52 67C43.7157 67 37 60.2843 37 52C37 43.7157 43.7157 37 52 37C60.2843 37 67 43.7157 67 52ZM52 65C59.1797 65 65 59.1797 65 52C65 44.8203 59.1797 39 52 39C44.8203 39 39 44.8203 39 52C39 59.1797 44.8203 65 52 65Z" fill="#2B6F95"/>
<path fill-rule="evenodd" clip-rule="evenodd" d="M52 41C45.9249 41 41 45.9249 41 52C41 52.5523 40.5523 53 40 53C39.4477 53 39 52.5523 39 52C39 44.8203 44.8203 39 52 39C52.5523 39 53 39.4477 53 40C53 40.5523 52.5523 41 52 41Z" fill="#9FFAD0"/>
<path fill-rule="evenodd" clip-rule="evenodd" d="M53.0832 45.5C50.1661 45.5 47.5 48.2333 47.5 52C47.5 55.7667 50.1661 58.5 53.0832 58.5C54.1826 58.5 55.2173 58.1295 56.0993 57.4672C56.7617 56.9698 57.702 57.1035 58.1995 57.7659C58.6969 58.4284 58.5632 59.3687 57.9007 59.8661C56.5389 60.8888 54.8803 61.5 53.0832 61.5C48.1765 61.5 44.5 57.0699 44.5 52C44.5 46.9301 48.1765 42.5 53.0832 42.5C54.8803 42.5 56.5389 43.1112 57.9007 44.1339C58.5632 44.6313 58.6969 45.5716 58.1995 46.2341C57.702 46.8965 56.7617 47.0302 56.0993 46.5328C55.2173 45.8705 54.1826 45.5 53.0832 45.5Z" fill="#2B6F95"/>
<path fill-rule="evenodd" clip-rule="evenodd" d="M42 54C42 53.4477 42.4477 53 43 53H51C51.5523 53 52 53.4477 52 54C52 54.5523 51.5523 55 51 55H43C42.4477 55 42 54.5523 42 54Z" fill="#2B6F95"/>
<path fill-rule="evenodd" clip-rule="evenodd" d="M42 50C42 49.4477 42.4477 49 43 49H51C51.5523 49 52 49.4477 52 50C52 50.5523 51.5523 51 51 51H43C42.4477 51 42 50.5523 42 50Z" fill="#2B6F95"/>
<path d="M10 31C10 27.6863 12.6863 25 16 25H76C79.3137 25 82 27.6863 82 31V61C82 64.3137 79.3137 67 76 67H16C12.6863 67 10 64.3137 10 61V31Z" fill="#021024" fill-opacity="0.1"/>
<path d="M10 29C10 26.7909 11.7909 25 14 25H74C76.2091 25 78 26.7909 78 29V59C78 61.2091 76.2091 63 74 63H14C11.7909 63 10 61.2091 10 59V29Z" fill="#78D3A9"/>
<path fill-rule="evenodd" clip-rule="evenodd" d="M14 23H74C77.3137 23 80 25.6863 80 29V59C80 62.3137 77.3137 65 74 65H14C10.6863 65 8 62.3137 8 59V29C8 25.6863 10.6863 23 14 23ZM14 25C11.7909 25 10 26.7909 10 29V59C10 61.2091 11.7909 63 14 63H74C76.2091 63 78 61.2091 78 59V29C78 26.7909 76.2091 25 74 25H14Z" fill="#2B6F95"/>
<path fill-rule="evenodd" clip-rule="evenodd" d="M10 29C10 26.7909 11.7909 25 14 25H36C36.5523 25 37 25.4477 37 26C37 26.5523 36.5523 27 36 27H14C12.8954 27 12 27.8954 12 29V40C12 40.5523 11.5523 41 11 41C10.4477 41 10 40.5523 10 40V29Z" fill="#9FFAD0"/>
<path d="M22 27H14C12.8954 27 12 27.8954 12 29V36.5404C12 37.809 13.1664 38.7509 14.3596 38.3202C18.0568 36.9855 22.8026 34.0479 23.8078 28.9884C24.023 27.905 23.1046 27 22 27Z" fill="#1BB093"/>
<path d="M66 61L74 61C75.1046 61 76 60.1046 76 59L76 51.4596C76 50.191 74.8336 49.2491 73.6404 49.6798C69.9432 51.0145 65.1974 53.9521 64.1922 59.0116C63.977 60.095 64.8954 61 66 61Z" fill="#1BB093"/>
<path d="M12 51L12 59C12 60.1046 12.8954 61 14 61L21.5404 61C22.809 61 23.7509 59.8336 23.3202 58.6403C21.9855 54.9432 19.0479 50.1974 13.9884 49.1922C12.905 48.977 12 49.8954 12 51Z" fill="#1BB093"/>
<path d="M76 37L76 29C76 27.8954 75.1046 27 74 27L66.4596 27C65.191 27 64.2491 28.1664 64.6798 29.3596C66.0145 33.0568 68.9521 37.8026 74.0116 38.8078C75.095 39.023 76 38.1046 76 37Z" fill="#1BB093"/>
<path d="M60 53C60 53.5523 59.5523 54 59 54C58.4477 54 58 53.5523 58 53C58 52.4477 58.4477 52 59 52C59.5523 52 60 52.4477 60 53Z" fill="#1BB093"/>
<path d="M64 52C64 52.5523 63.5523 53 63 53C62.4477 53 62 52.5523 62 52C62 51.4477 62.4477 51 63 51C63.5523 51 64 51.4477 64 52Z" fill="#1BB093"/>
<path d="M64 56C64 56.5523 63.5523 57 63 57C62.4477 57 62 56.5523 62 56C62 55.4477 62.4477 55 63 55C63.5523 55 64 55.4477 64 56Z" fill="#1BB093"/>
<path d="M59 57C59 57.5523 58.5523 58 58 58C57.4477 58 57 57.5523 57 57C57 56.4477 57.4477 56 58 56C58.5523 56 59 56.4477 59 57Z" fill="#1BB093"/>
<path d="M54 57C54 57.5523 53.5523 58 53 58C52.4477 58 52 57.5523 52 57C52 56.4477 52.4477 56 53 56C53.5523 56 54 56.4477 54 57Z" fill="#1BB093"/>
<path d="M49 60C49 60.5523 48.5523 61 48 61C47.4477 61 47 60.5523 47 60C47 59.4477 47.4477 59 48 59C48.5523 59 49 59.4477 49 60Z" fill="#1BB093"/>
<path d="M76 47C76 47.5523 75.5523 48 75 48C74.4477 48 74 47.5523 74 47C74 46.4477 74.4477 46 75 46C75.5523 46 76 46.4477 76 47Z" fill="#1BB093"/>
<path d="M67 48C67 48.5523 66.5523 49 66 49C65.4477 49 65 48.5523 65 48C65 47.4477 65.4477 47 66 47C66.5523 47 67 47.4477 67 48Z" fill="#1BB093"/>
<path d="M63 60C63 60.5523 62.5523 61 62 61C61.4477 61 61 60.5523 61 60C61 59.4477 61.4477 59 62 59C62.5523 59 63 59.4477 63 60Z" fill="#1BB093"/>
<path d="M57 60C57 60.5523 56.5523 61 56 61C55.4477 61 55 60.5523 55 60C55 59.4477 55.4477 59 56 59C56.5523 59 57 59.4477 57 60Z" fill="#1BB093"/>
<path d="M68 53C68 53.5523 67.5523 54 67 54C66.4477 54 66 53.5523 66 53C66 52.4477 66.4477 52 67 52C67.5523 52 68 52.4477 68 53Z" fill="#1BB093"/>
<path d="M72 55C72 55.5523 71.5523 56 71 56C70.4477 56 70 55.5523 70 55C70 54.4477 70.4477 54 71 54C71.5523 54 72 54.4477 72 55Z" fill="#1BB093"/>
<path d="M71 50C71 50.5523 70.5523 51 70 51C69.4477 51 69 50.5523 69 50C69 49.4477 69.4477 49 70 49C70.5523 49 71 49.4477 71 50Z" fill="#1BB093"/>
<path d="M67 58C67 58.5523 66.5523 59 66 59C65.4477 59 65 58.5523 65 58C65 57.4477 65.4477 57 66 57C66.5523 57 67 57.4477 67 58Z" fill="#1BB093"/>
<path d="M72 60C72 60.5523 71.5523 61 71 61C70.4477 61 70 60.5523 70 60C70 59.4477 70.4477 59 71 59C71.5523 59 72 59.4477 72 60Z" fill="#1BB093"/>
<path d="M43.4427 29L43.2364 29.6837V49.5203L43.4427 49.7211L52.8831 44.2784L43.4427 29Z" fill="#343434"/>
<path d="M43.4405 29L34 44.2784L43.4405 49.7211V40.093V29Z" fill="#8C8C8C"/>
<path d="M43.4428 51.4644L43.3265 51.6027V58.6689L43.4428 59L52.8889 46.0244L43.4428 51.4644Z" fill="#3C3C3B"/>
<path d="M43.4405 59V51.4644L34 46.0244L43.4405 59Z" fill="#8C8C8C"/>
<path d="M43.4392 49.7208L52.8795 44.278L43.4392 40.0927V49.7208Z" fill="#141414"/>
<path d="M34 44.278L43.4405 49.7208V40.0927L34 44.278Z" fill="#393939"/>
</svg>
